<svg xmlns="http://www.w3.org/2000/svg" fill="none" viewBox="0 0 575 445"><path fill="url(#a)" fill-rule="evenodd" d="M170.99 74.85c45.96-7.1 64.45 55.25 106.38 73.5 70.96 30.86 199.27-9.46 211.95 64.97 12.24 71.8-114.4 81.31-180.79 117.94-39.76 21.93-75.2 50.81-120.4 48.22-51.51-2.95-107.43-18.69-130.77-62.63-22.93-43.19 2.97-93.22 24.1-138.22 20.2-43.01 41.42-96.34 89.53-103.78Z" clip-rule="evenodd" opacity=".12"/><path fill="url(#b)" fill-rule="evenodd" d="M525.04 120.21c-70.13-76.72-148.01-8.7-240.71 37.53-51.55 25.7-126.69 33.72-127.1 93.53-.43 61.38 70.75 79.44 125.77 98.28 64.14 21.96 136.56 59.96 183.62 7.63 75.04-83.44 132.81-155.57 58.42-236.97Z" clip-rule="evenodd" opacity=".12"/><g clip-path="url(#c)"><path fill="#F48C9B" fill-rule="evenodd" d="M289.77 181.34c.46.25.93.47 1.4.69 1.02.47 2.1.96 3.23.85.9-.1 1.83-.67 2.58-1.16a4.87 4.87 0 0 0 1.9-2.13 6.5 6.5 0 0 0-.4-5.72c-1.23-1.96-2.26-2.28-4.38-2.85-.96-.26-1.66-.56-2.64-.38-1.11.21-2.42.12-3.54.05-.9-.05-1.8-.17-2.7-.04-.2.03-.4.08-.56.2-.47.33-.39 1.02-.13 1.45.22.36.96 1.12.26 1.03-.12-.01-.4.64-.43.75-.27.92 1.06 1.28 1.42 1.64.47.47 1.05.88 1.38 1.48.31.58-.1 1.2.14 1.85.2.51.56.93.97 1.29.46.4.97.71 1.5 1Z" clip-rule="evenodd"/><path stroke="#fff" stroke-linecap="round" stroke-linejoin="round" stroke-width="1.03" d="M289.77 181.34c.46.25.93.47 1.4.69 1.02.47 2.1.96 3.23.85.9-.1 1.83-.67 2.58-1.16a4.87 4.87 0 0 0 1.9-2.13 6.5 6.5 0 0 0-.4-5.72c-1.23-1.96-2.26-2.28-4.38-2.85-.96-.26-1.66-.56-2.64-.38-1.11.21-2.42.12-3.54.05-.9-.05-1.8-.17-2.7-.04-.2.03-.4.08-.56.2-.47.33-.39 1.02-.13 1.45.22.36.96 1.12.26 1.03-.12-.01-.4.64-.43.75-.27.92 1.06 1.28 1.42 1.64.47.47 1.05.88 1.38 1.48.31.58-.1 1.2.14 1.85.2.51.56.93.97 1.29.46.4.97.71 1.5 1Z" clip-rule="evenodd"/><path fill="#E8E8E8" fill-rule="evenodd" d="M555.5 440.79c-6.6-.78-12.63-.9-19.5-1.2-9.57-.41-18.9-1.3-28.43-1.8a1840.86 1840.86 0 0 0-76.18-2.35c-7.08-.07-90.1-.43-92.67 1.85-2 1.75 12.27 3.38 16.72 3.8 6.57.62 73.68.77 80.37 1.03 8.9.36 14.95 1.12 23.86 1.25 16.62.23 37.27.65 53.95 1.02 12.22.27 25.38-.2 37.24-.67 4.45-.17 9.39-.4 7.54-1.82-.82-.62-4.45-1.3-2.9-1.11Z" clip-rule="evenodd"/><path stroke="#E8E8E8" stroke-linecap="round" stroke-linejoin="round" stroke-width="1.03" d="M555.5 440.79c-6.6-.78-12.63-.9-19.5-1.2-9.57-.41-18.9-1.3-28.43-1.8a1840.86 1840.86 0 0 0-76.18-2.35c-7.08-.07-90.1-.43-92.67 1.85-2 1.75 12.27 3.38 16.72 3.8 6.57.62 73.68.77 80.37 1.03 8.9.36 14.95 1.12 23.86 1.25 16.62.23 37.27.65 53.95 1.02 12.22.27 25.38-.2 37.24-.67 4.45-.17 9.39-.4 7.54-1.82-.82-.62-4.45-1.3-2.9-1.11Z" clip-rule="evenodd"/><path fill="#E8E8E8" fill-rule="evenodd" d="M268.48 438.67c-3.9-.65-7.49-.69-11.56-.9-5.67-.29-11.2-1-16.85-1.37-15.07-.98-30.1-1.4-45.16-1.4-4.2 0-53.45.53-55 2.66-1.2 1.65 7.25 3 9.88 3.35 3.9.5 43.7-.05 47.67.13 5.27.23 8.85.88 14.14.9 9.86.05 22.1.23 32 .4 7.24.12 15.05-.44 22.1-1 2.63-.2 5.57-.48 4.48-1.76-.48-.57-2.62-1.16-1.7-1Z" clip-rule="evenodd"/><path stroke="#E8E8E8" stroke-linecap="round" stroke-linejoin="round" stroke-width="1.03" d="M268.48 438.67c-3.9-.65-7.49-.69-11.56-.9-5.67-.29-11.2-1-16.85-1.37-15.07-.98-30.1-1.4-45.16-1.4-4.2 0-53.45.53-55 2.66-1.2 1.65 7.25 3 9.88 3.35 3.9.5 43.7-.05 47.67.13 5.27.23 8.85.88 14.14.9 9.86.05 22.1.23 32 .4 7.24.12 15.05-.44 22.1-1 2.63-.2 5.57-.48 4.48-1.76-.48-.57-2.62-1.16-1.7-1Z" clip-rule="evenodd"/><path fill="#1EDBCF" fill-rule="evenodd" d="m204.64 140.68-4.71-3.55c-5.19-3.9-10.1-8.35-13.48-13.9-.68-1.13-1.35-2.34-2.49-3.02-2.09-1.24-3.9.9-5.52 1.96-3.31 2.16-6.57 4.45-10 6.56a334.09 334.09 0 0 1-29.94 16.31c-1.8.87-3.7 1.74-5.62 2.3-1.68.5-2.87.32-4.37 1.23 5.56 4.54 9.24 10.9 14.6 15.73 5.8 5.22 12.52 8.36 19.56 11.41 7.93 3.44 15.84 5.77 24.3 7.69a92.02 92.02 0 0 0 22.33 2.4c8-.22 16.88-3.25 23.96-7a68.8 68.8 0 0 0 10.14-6.53c2.57-2 6.27-4.15 8.05-6.89.39-.6.72-1.3.63-2-.12-.89-.9-1.57-1.74-1.86-.84-.3-1.75-.28-2.64-.3-6.87-.13-13.58-2.28-19.73-5.34-8.2-4.08-15.91-9.63-23.33-15.2Z" clip-rule="evenodd"/><path stroke="#1EDBCF" stroke-linecap="round" stroke-linejoin="round" stroke-width="1.03" d="m204.64 140.68-4.71-3.55c-5.19-3.9-10.1-8.35-13.48-13.9-.68-1.13-1.35-2.34-2.49-3.02-2.09-1.24-3.9.9-5.52 1.96-3.31 2.16-6.57 4.45-10 6.56a334.09 334.09 0 0 1-29.94 16.31c-1.8.87-3.7 1.74-5.62 2.3-1.68.5-2.87.32-4.37 1.23 5.56 4.54 9.24 10.9 14.6 15.73 5.8 5.22 12.52 8.36 19.56 11.41 7.93 3.44 15.84 5.77 24.3 7.69a92.02 92.02 0 0 0 22.33 2.4c8-.22 16.88-3.25 23.96-7a68.8 68.8 0 0 0 10.14-6.53c2.57-2 6.27-4.15 8.05-6.89.39-.6.72-1.3.63-2-.12-.89-.9-1.57-1.74-1.86-.84-.3-1.75-.28-2.64-.3-6.87-.13-13.58-2.28-19.73-5.34-8.2-4.08-15.91-9.63-23.33-15.2Z" clip-rule="evenodd"/><path stroke="#1F2573" stroke-linecap="round" stroke-linejoin="round" stroke-width="1.03" d="M196.66 184.5c-13.63-.9-38.3-12.31-46.9-18.26a77.22 77.22 0 0 1-11.74-9.76c-.86-.88-9.85-10.82-9.01-11 6.99-1.43 14.65-5.86 20.94-9.23 12.6-6.75 25.3-13.55 36.45-22.49-.57.46 2.68 6.4 3.08 7.1a34.65 34.65 0 0 0 4.4 6.01c3.46 3.8 6.9 7.46 10.94 10.59 9.57 7.4 20.26 14.13 31.42 18.94 1.22.53 2.46 1.03 3.7 1.5l.06.01"/><path stroke="#1F2573" stroke-linecap="round" stroke-linejoin="round" stroke-width="1.03" d="M187.29 112.87c-.11.12 4.22-2.36 4.22-2.36s7.46 11.45 8.32 12.55c10.42 13.37 26.92 24.5 42.16 31.7"/><path fill="#D9DDDC" fill-rule="evenodd" d="M190.45 113.8c-1.3-.5-2.38 1.97-.87 2.6 2.57 1.06 2.66-3.77.16-2.6" clip-rule="evenodd"/><path stroke="#D9DDDC" stroke-linecap="round" stroke-linejoin="round" stroke-width="1.03" d="M190.45 113.8c-1.3-.5-2.38 1.97-.87 2.6 2.57 1.06 2.66-3.77.16-2.6"/><path fill="#D9DDDC" fill-rule="evenodd" d="M193.03 118.27c-1.46-.61-3.52 1.56-1.36 2.36 2.93 1.07 3.03-4.13.9-2.13" clip-rule="evenodd"/><path stroke="#D9DDDC" stroke-linecap="round" stroke-linejoin="round" stroke-width="1.03" d="M193.03 118.27c-1.46-.61-3.52 1.56-1.36 2.36 2.93 1.07 3.03-4.13.9-2.13"/><path fill="#D9DDDC" fill-rule="evenodd" d="M195.85 121.32c-1.42-.41-3.01 2.22-1.54 3.42 2.72 2.22 3.5-4.24.84-3.18" clip-rule="evenodd"/><path stroke="#D9DDDC" stroke-linecap="round" stroke-linejoin="round" stroke-width="1.03" d="M195.85 121.32c-1.42-.41-3.01 2.22-1.54 3.42 2.72 2.22 3.5-4.24.84-3.18"/><path fill="#F48C9B" fill-rule="evenodd" d="M529.77 236.82c1.46 1.5 3.71 4.33 5.44 5.48 1.15.77 4.17 2.21 5.48 3.2 1.16.86 3.51 3.12 2.93 3.82-.51.61-8.01-2.85-8.94-3.83.9.61 11.5 7.4 10.18 8.5-1.28 1.06-8.68-5.79-9.79-6.63 1.35 1.82 7.82 8.68 7.78 11.3 0 .37-.32.64-.66.55-2.22-.53-7.8-7.08-9.19-9.16 1.17 2.12 6.32 12.4 4.1 12.4-2.02 0-3.6-4.5-4.8-5.7-.75-.75-1.18-2.28-2.41-.95-.7.74-.65 2.75-1.34 3.84-.89 1.4-2.13.65-2.66-.7-.59-1.52.09-4.46-.17-6.02-.4-2.32-.79-3.16-2.02-5.23-.71-1.2-4.97-6.76-5-8.24-.02-2.06 2.54-2.87 3.79-4.32.68-.8 1.62-1.73 2.76-1.68.97.04 3.35 2.18 4.01 2.85l.51.52Z" clip-rule="evenodd"/><path stroke="#F48C9B" stroke-linecap="round" stroke-linejoin="round" stroke-width="1.03" d="M529.77 236.82c1.46 1.5 3.71 4.33 5.44 5.48 1.15.77 4.17 2.21 5.48 3.2 1.16.86 3.51 3.12 2.93 3.82-.51.61-8.01-2.85-8.94-3.83.9.61 11.5 7.4 10.18 8.5-1.28 1.06-8.68-5.79-9.79-6.63 1.35 1.82 7.82 8.68 7.78 11.3 0 .37-.32.64-.66.55-2.22-.53-7.8-7.08-9.19-9.16 1.17 2.12 6.32 12.4 4.1 12.4-2.02 0-3.6-4.5-4.8-5.7-.75-.75-1.18-2.28-2.41-.95-.7.74-.65 2.75-1.34 3.84-.89 1.4-2.13.65-2.66-.7-.59-1.52.09-4.46-.17-6.02-.4-2.32-.79-3.16-2.02-5.23-.71-1.2-4.97-6.76-5-8.24-.02-2.06 2.54-2.87 3.79-4.32.68-.8 1.62-1.73 2.76-1.68.97.04 3.35 2.18 4.01 2.85l.51.52Z" clip-rule="evenodd"/><path fill="#C1C5DB" fill-rule="evenodd" d="m543.32 385.68-6.88-5.38c-.14.29-11.04 5.3-11.04 5.3l14.57 10.85 3.35-10.77Z" clip-rule="evenodd"/><path stroke="#C1C5DB" stroke-linecap="round" stroke-linejoin="round" stroke-width="1.03" d="m543.32 385.68-6.88-5.38c-.14.29-11.04 5.3-11.04 5.3l14.57 10.85 3.35-10.77Z" clip-rule="evenodd"/><path fill="#1F2573" fill-rule="evenodd" d="m541.01 415.92 8.81-28.07-7.1-4.19c-.02-.08-4.04 11.63-4.86 15.02-.86 3.55-.26 10.1.3 13 .36 1.9 2.85 4.24 2.85 4.24Z" clip-rule="evenodd"/><path stroke="#1F2573" stroke-linecap="round" stroke-linejoin="round" stroke-width="1.03" d="m541.01 415.92 8.81-28.07-7.1-4.19c-.02-.08-4.04 11.63-4.86 15.02-.86 3.55-.26 10.1.3 13 .36 1.9 2.85 4.24 2.85 4.24Z" clip-rule="evenodd"/><path fill="#C1C5DB" fill-rule="evenodd" d="m472.5 430.36-5.38-12.33c.33.02-1-4.07 10.97-4.15l5.1 10.07-10.7 6.41Z" clip-rule="evenodd"/><path stroke="#C1C5DB" stroke-linecap="round" stroke-linejoin="round" stroke-width="1.03" d="m472.5 430.36-5.38-12.33c.33.02-1-4.07 10.97-4.15l5.1 10.07-10.7 6.41Z" clip-rule="evenodd"/><path fill="#1F2573" fill-rule="evenodd" d="m457.9 441.97 14.3-.14 17.05-12.02-5.29-8.18c.05-.07-9.78 6.54-12.73 8.29-.9.53-3.7 4.66-4.7 5.57-2.43 2.23-7 2.25-8.18 3.94-1.08 1.55-.45 2.54-.45 2.54Z" clip-rule="evenodd"/><path stroke="#1F2573" stroke-linecap="round" stroke-linejoin="round" stroke-width="1.03" d="m457.9 441.97 14.3-.14 17.05-12.02-5.29-8.18c.05-.07-9.78 6.54-12.73 8.29-.9.53-3.7 4.66-4.7 5.57-2.43 2.23-7 2.25-8.18 3.94-1.08 1.55-.45 2.54-.45 2.54Z" clip-rule="evenodd"/><path fill="#F48C9B" fill-rule="evenodd" d="M296.2 175.39a2.6 2.6 0 0 0-1.26-1.31c-2.44-1.2-5.1-1.8-7.58-2.87-.82-.35-1.78-1.46-.36-1.84.6-.16 1.85.05 2.47.12 1.56.2 3.1.49 4.63.87 1.6.4 2.97 1.18 4.5 1.81 2.9 1.2 4.68 2.76 6.51 5.3 1.82 2.54 3.4 5.32 5.86 7.32 1.3 1.05 2.8 1.84 4.16 2.8 2.41 1.7 4.4 3.9 6.37 6.1.16.18.33.36.38.6.1.44-.23.85-.53 1.18l-5.25 5.82c-.15.16-.32.34-.53.39-.25.05-.5-.06-.72-.18-5.43-2.8-8.29-7.38-12.65-11.36-3.23-2.95-6.65-4.34-10.7-5.79-.61-.22-1.24-.44-1.88-.5-.47-.05-.95-.01-1.42-.1-.46-.1-.93-.34-1.11-.78-1.16-2.72 5.65-1.82 6.64-1.96a5.5 5.5 0 0 0 2.24-.72c.66-.43 1.18-1.15 1.19-1.94.01-1.4-.09-1.9-.97-2.96Z" clip-rule="evenodd"/><path stroke="#F48C9B" stroke-linecap="round" stroke-linejoin="round" stroke-width="1.03" d="M296.2 175.39a2.6 2.6 0 0 0-1.26-1.31c-2.44-1.2-5.1-1.8-7.58-2.87-.82-.35-1.78-1.46-.36-1.84.6-.16 1.85.05 2.47.12 1.56.2 3.1.49 4.63.87 1.6.4 2.97 1.18 4.5 1.81 2.9 1.2 4.68 2.76 6.51 5.3 1.82 2.54 3.4 5.32 5.86 7.32 1.3 1.05 2.8 1.84 4.16 2.8 2.41 1.7 4.4 3.9 6.37 6.1.16.18.33.36.38.6.1.44-.23.85-.53 1.18l-5.25 5.82c-.15.16-.32.34-.53.39-.25.05-.5-.06-.72-.18-5.43-2.8-8.29-7.38-12.65-11.36-3.23-2.95-6.65-4.34-10.7-5.79-.61-.22-1.24-.44-1.88-.5-.47-.05-.95-.01-1.42-.1-.46-.1-.93-.34-1.11-.78-1.16-2.72 5.65-1.82 6.64-1.96a5.5 5.5 0 0 0 2.24-.72c.66-.43 1.18-1.15 1.19-1.94.01-1.4-.09-1.9-.97-2.96Z" clip-rule="evenodd"/><path fill="#fff" fill-rule="evenodd" d="m467.51 424.72 12.85-8.63c.22 0-21.35-77.77-21.35-77.77l-7.57-58.43 22.69 62.75 57.94 49.8s5.6-13.62 5.92-13.57c-.85-.12-40.2-41.78-40.2-41.78-.22.4-22.65-87.61-21.32-87.42l-61.5-15.63c.53.07-3.22 16.8-2.46 35.4.22 5.64 19.97 69.78 19.97 69.78s36.27 85.5 35.03 85.5Z" clip-rule="evenodd"/><path stroke="#1EDBCF" stroke-linecap="round" stroke-linejoin="round" stroke-width="1.03" d="m467.51 424.72 12.85-8.63c.22 0-21.35-77.77-21.35-77.77l-7.57-58.43 22.69 62.75 57.94 49.8s5.6-13.62 5.92-13.57c-.85-.12-40.2-41.78-40.2-41.78-.22.4-22.65-87.61-21.32-87.42l-61.5-15.63c.53.07-3.22 16.8-2.46 35.4.22 5.64 19.97 69.78 19.97 69.78s36.27 85.5 35.03 85.5Z" clip-rule="evenodd"/><path fill="#C1C5DB" fill-rule="evenodd" d="M450.73 267.35c6.17-2.7 12.62-3.42 19.17-4.84 2.07-.45 4.25-.94 5.83-2.36 6.06-5.4 1.4-16.68-1.09-22.69-1.67-4.04-4.14-7.4-6.04-11.2-.75-1.51-2.8-13.4-3.12-13.53 11.5 4.97 18.2 7.61 28.36 14.89 2.26 1.61 4.43 3.39 6.68 5 1.16.83 4.66 2.08 5.26 3.11.33.56.24 1.26.33 1.9.3 2.1 2.4 3.4 4.36 4.22 2.38 1 6.74 6.17 9.19 5.64 5.1-1.09 8.12-6.25 10.28-11 .39-.85.78-1.77.65-2.7a5.12 5.12 0 0 0-.98-2.08c-1.09-1.6-3.05-3.59-3.66-5.41-.62-1.8.4-3.63-.74-5.49-.95-1.52-3.08-2.37-4.64-1.5a3.5 3.5 0 0 1-.1-3.07c-.33-.95-1.77.04-2.76-.16-.84-.17-1.13-1.19-1.51-1.95-.82-1.63-6.34-4.22-8.06-5.5-2.96-2.23-5.97-4.4-8.9-6.67-11.2-8.7-18.75-13.64-32.21-18.55-12.6-4.6-25.06-9.92-38.6-11-9.95-.79-20.21 1.63-28.25 7.69-3.38 2.53-6.43 5.02-6.8 9.37-.31 3.67-.08 7.48.25 11.14.9 9.96 1.32 19.18 3.63 28.94a231.5 231.5 0 0 0 9.06 29.1c1.4 3.63 1.27 4.32 2 8.13.54 2.9-1 10.15 1.44 12.27 2.18 1.9 18.39-3.8 24.53-4 2.26-.08 4.25-1.02 6.36-1.74 3.87-1.32 6.45-4.36 10.08-5.96Z" clip-rule="evenodd"/><path stroke="#C1C5DB" stroke-linecap="round" stroke-linejoin="round" stroke-width="1.03" d="M450.73 267.35c6.17-2.7 12.62-3.42 19.17-4.84 2.07-.45 4.25-.94 5.83-2.36 6.06-5.4 1.4-16.68-1.09-22.69-1.67-4.04-4.14-7.4-6.04-11.2-.75-1.51-2.8-13.4-3.12-13.53 11.5 4.97 18.2 7.61 28.36 14.89 2.26 1.61 4.43 3.39 6.68 5 1.16.83 4.66 2.08 5.26 3.11.33.56.24 1.26.33 1.9.3 2.1 2.4 3.4 4.36 4.22 2.38 1 6.74 6.17 9.19 5.64 5.1-1.09 8.12-6.25 10.28-11 .39-.85.78-1.77.65-2.7a5.12 5.12 0 0 0-.98-2.08c-1.09-1.6-3.05-3.59-3.66-5.41-.62-1.8.4-3.63-.74-5.49-.95-1.52-3.08-2.37-4.64-1.5a3.5 3.5 0 0 1-.1-3.07c-.33-.95-1.77.04-2.76-.16-.84-.17-1.13-1.19-1.51-1.95-.82-1.63-6.34-4.22-8.06-5.5-2.96-2.23-5.97-4.4-8.9-6.67-11.2-8.7-18.75-13.64-32.21-18.55-12.6-4.6-25.06-9.92-38.6-11-9.95-.79-20.21 1.63-28.25 7.69-3.38 2.53-6.43 5.02-6.8 9.37-.31 3.67-.08 7.48.25 11.14.9 9.96 1.32 19.18 3.63 28.94a231.5 231.5 0 0 0 9.06 29.1c1.4 3.63 1.27 4.32 2 8.13.54 2.9-1 10.15 1.44 12.27 2.18 1.9 18.39-3.8 24.53-4 2.26-.08 4.25-1.02 6.36-1.74 3.87-1.32 6.45-4.36 10.08-5.96Z" clip-rule="evenodd"/><path fill="#C1C5DB" fill-rule="evenodd" d="M401.3 217.69c4.66-1.3 9.18-2.79 13.23-5.53 6.04-4.1 11.04-7.48 15.64-13.24 4.28-6.6 5.17-15.9.34-22.12a9.65 9.65 0 0 0-3.96-3.17c-2-.8-4.25-.62-6.4-.44-14.87 1.26-29.03 4.59-42.5 10.86-14.97 6.96-37.84 15.85-54.24 7.1-.4-.2-.81-.44-1.12-.77-1.6-1.75-2.76-1.5-4.54-2.84-1.25-.95-1.46-2.2-2.56-3.19-6.29-5.63-12.13 2.06-13.95 5.24-.95 1.66-.66 3.07.75 4.28.6.52 1.08.35 1.6 1.13.52.8.44 2.1.56 3.01.16 1.2.64 2.41 1.58 3.16.64.5 1.45.76 2.24 1l3.15.97c.66.2 1.36.42 1.83.92.39.4.6.95.95 1.37.64.75 1.67 1 2.6 1.3 1.57.53 3.06 1.3 4.4 2.29 1.98 1.48 3.9 1.53 6.07 2.57 2.52 1.2 5.06 2.36 7.62 3.48 9.25 4.04 24.84 6.62 34.89 7.57 3.57.34 7.17.47 10.74.12 5-.48 9.85-1.89 14.67-3.3 2.14-.62 4.29-1.18 6.41-1.77Z" clip-rule="evenodd"/><path stroke="#C1C5DB" stroke-linecap="round" stroke-linejoin="round" stroke-width="1.03" d="M401.3 217.69c4.66-1.3 9.18-2.79 13.23-5.53 6.04-4.1 11.04-7.48 15.64-13.24 4.28-6.6 5.17-15.9.34-22.12a9.65 9.65 0 0 0-3.96-3.17c-2-.8-4.25-.62-6.4-.44-14.87 1.26-29.03 4.59-42.5 10.86-14.97 6.96-37.84 15.85-54.24 7.1-.4-.2-.81-.44-1.12-.77-1.6-1.75-2.76-1.5-4.54-2.84-1.25-.95-1.46-2.2-2.56-3.19-6.29-5.63-12.13 2.06-13.95 5.24-.95 1.66-.66 3.07.75 4.28.6.52 1.08.35 1.6 1.13.52.8.44 2.1.56 3.01.16 1.2.64 2.41 1.58 3.16.64.5 1.45.76 2.24 1l3.15.97c.66.2 1.36.42 1.83.92.39.4.6.95.95 1.37.64.75 1.67 1 2.6 1.3 1.57.53 3.06 1.3 4.4 2.29 1.98 1.48 3.9 1.53 6.07 2.57 2.52 1.2 5.06 2.36 7.62 3.48 9.25 4.04 24.84 6.62 34.89 7.57 3.57.34 7.17.47 10.74.12 5-.48 9.85-1.89 14.67-3.3 2.14-.62 4.29-1.18 6.41-1.77Z" clip-rule="evenodd"/><path stroke="#1F2573" stroke-linecap="round" stroke-linejoin="round" stroke-width="1.03" d="M505.88 342.58c-2.3 2.65.85 9.26 2.26 11.2 3.45 4.75 8.68-1.35 5.84-3.81-2.02 2.95.04 8.07 3.1 7.86 3.31-.23 4.16-3.9 1.97-5.43-4.04 3.17 1.35 7.5 4.16 7.23"/><path stroke="#fff" stroke-linecap="round" stroke-linejoin="round" stroke-width="1.03" d="M415.44 173.91a6.35 6.35 0 0 1 1.58 4.87c-.33 2.4-3.77 4.4-5.82 4.9-4.57 1.12-8.2.87-11.03-3.56"/><path fill="#F48C9B" fill-rule="evenodd" d="M401.82 175.3c1.09 2.04 2.7 5.06 4.38 5.88 3.06 1.47 7.54-2.7 7.63-3.52.19-1.7-4.5-7.32-5.42-8.65-1.15-1.65-2.31-4.24-4.7-3.94-1.71.22-3.44 2.67-3.66 4.23-.23 1.7.37 3.42 1.2 4.93l.57 1.06Z" clip-rule="evenodd"/><path stroke="#F48C9B" stroke-linecap="round" stroke-linejoin="round" stroke-width="1.03" d="M401.82 175.3c1.09 2.04 2.7 5.06 4.38 5.88 3.06 1.47 7.54-2.7 7.63-3.52.19-1.7-4.5-7.32-5.42-8.65-1.15-1.65-2.31-4.24-4.7-3.94-1.71.22-3.44 2.67-3.66 4.23-.23 1.7.37 3.42 1.2 4.93l.57 1.06Z" clip-rule="evenodd"/><path fill="#F48C9B" fill-rule="evenodd" d="M403.13 176.88c-9.72.84-10.58-15.72-2.65-20.53 2.26-1.37 7.44-1.18 11.13 4.44 2.69 4.09-2.52 15.57-8.48 16.09Z" clip-rule="evenodd"/><path stroke="#F48C9B" stroke-linecap="round" stroke-linejoin="round" stroke-width="1.03" d="M403.13 176.88c-9.72.84-10.58-15.72-2.65-20.53 2.26-1.37 7.44-1.18 11.13 4.44 2.69 4.09-2.52 15.57-8.48 16.09Z" clip-rule="evenodd"/><path stroke="#fff" stroke-linecap="round" stroke-linejoin="round" stroke-width="1.03" d="M399.22 163.65c-.25.86-.6 2.31-.71 3.37-.22 2.07.77 2.1 2.39 2.98"/><path fill="#1F2573" fill-rule="evenodd" d="M410.62 165.26c-.28-.96-.75-1.95-1.12-2.88-.6-1.54-1.8-1.98-3.29-2.59-1.4-.57-2.93-.62-4.42-.78a10.1 10.1 0 0 1-3.47-.86c-.97-.45-1.49-1.48-1.85-2.42-.13-.32-.97-2.64-.3-2.78.4-.08.94-.54 1.27-.61-1.21-2 1.06-3.41 2.55-3.32.64.04 1.26.18 1.86.39.83.28.79.04 1.58-.05l1.27-.14c.43-.05.89-.1 1.26.13.38.22.57.67.8 1.05.4.63.7.42 1.23.61.37.13.68.38 1.1.51.27.09.57.34.79.54.9.8 1.79 1.73 2.87 2.28.16.08.33.16.47.27.16.14.27.33.39.51.38.58.91 1.16 1.57 1.42.47.2 1.24.28 1.08.99-.1.42-.76.76-.93 1.2-.27.71.05 1.45-.03 2.18-.04.36-.17.7-.3 1.04l-1.2 3.04c-.23.6-1.64 3.56-2.39 3.21-.76-.35-.6-2.26-.79-2.94Z" clip-rule="evenodd"/><path stroke="#1F2573" stroke-linecap="round" stroke-linejoin="round" stroke-width="1.03" d="M410.62 165.26c-.28-.96-.75-1.95-1.12-2.88-.6-1.54-1.8-1.98-3.29-2.59-1.4-.57-2.93-.62-4.42-.78a10.1 10.1 0 0 1-3.47-.86c-.97-.45-1.49-1.48-1.85-2.42-.13-.32-.97-2.64-.3-2.78.4-.08.94-.54 1.27-.61-1.21-2 1.06-3.41 2.55-3.32.64.04 1.26.18 1.86.39.83.28.79.04 1.58-.05l1.27-.14c.43-.05.89-.1 1.26.13.38.22.57.67.8 1.05.4.63.7.42 1.23.61.37.13.68.38 1.1.51.27.09.57.34.79.54.9.8 1.79 1.73 2.87 2.28.16.08.33.16.47.27.16.14.27.33.39.51.38.58.91 1.16 1.57 1.42.47.2 1.24.28 1.08.99-.1.42-.76.76-.93 1.2-.27.71.05 1.45-.03 2.18-.04.36-.17.7-.3 1.04l-1.2 3.04c-.23.6-1.64 3.56-2.39 3.21-.76-.35-.6-2.26-.79-2.94Z" clip-rule="evenodd"/><path fill="#303AB2" fill-rule="evenodd" d="M260.6 143.52a114.2 114.2 0 0 0 10.79-8.52c.14-.12.3-.25.49-.28 2.5-.38-2 18.38-2.6 20.22-1.82 5.71-4.6 11.65-9.55 15.13-5.55 3.9-10.48 7.46-16.87 10.01-12.48 4.99-30.61 8.3-43.76 5.36 12.46-.11 21.76-5.28 33.05-13.75 11.45-8.6 12.63-19.8 12.63-19.8.04-.35 3.93-1.64 4.29-1.8a64.03 64.03 0 0 0 7.91-4.21 90.4 90.4 0 0 0 3.61-2.36Z" clip-rule="evenodd"/><path stroke="#303AB2" stroke-linecap="round" stroke-linejoin="round" stroke-width="1.03" d="M260.6 143.52a114.2 114.2 0 0 0 10.79-8.52c.14-.12.3-.25.49-.28 2.5-.38-2 18.38-2.6 20.22-1.82 5.71-4.6 11.65-9.55 15.13-5.55 3.9-10.48 7.46-16.87 10.01-12.48 4.99-30.61 8.3-43.76 5.36 0 0 0 0 0 0 12.46-.11 21.76-5.28 33.05-13.75 11.45-8.6 12.63-19.8 12.63-19.8.04-.35 3.93-1.64 4.29-1.8a64.03 64.03 0 0 0 7.91-4.21 90.4 90.4 0 0 0 3.61-2.36Z" clip-rule="evenodd"/><path stroke="#1F2573" stroke-linecap="round" stroke-linejoin="round" stroke-width="1.03" d="M258 170.4c4.05-2.1 9.15-6.86 11.1-10.98 2.18-4.6 3.41-8.68 4.1-13.7.53-3.79 2.01-10.5.55-14.25a.34.34 0 0 0-.53-.14c-1.81 1.37-10.14 7.57-10.94 8.11-4.33 2.95-8.37 5.65-13.23 7.62-1.15.46-2.36.93-3.17 1.87-1.1 1.26-1.21 3.06-1.42 4.71-.36 2.88-2.04 7.18-3.58 9.64-7.47 11.87-21.86 20.38-36.3 22.24"/><path stroke="#fff" stroke-linecap="round" stroke-linejoin="round" stroke-width="1.03" d="M392.24 192.97c0 6.45 2.28 14.68 2.6 22.04.49 11.67 2.75 22.99 3.7 34.67M448.17 198.16c2.14 2.35 5.36 3.68 7.87 5.64 3.07 2.39 5.5 5.8 8.28 8.44 5.76 5.5 11.26 12.48 14.23 20.02"/><path stroke="#303AB2" stroke-linecap="round" stroke-linejoin="round" stroke-width="1.03" d="M400.02 247.08c.11-4.56 6.22-.1 6.66 2.82.38 2.6-2.54 9.34-5.9 6.86 1.35-7.89 13.67 3.99 3.8 7.95-.73-4.05 6.14-2.53 3.59 2.76"/><path stroke="#1F2573" stroke-linecap="round" stroke-linejoin="round" stroke-width="1.03" d="M414.96 170.8c4.44-1.43 10.62-.67 15.2-.03 1.8.25 3.58.72 5.38 1.01 5.66.92 11.85 3.14 17.25 5.3 5.46 2.18 11.05 3.66 16.33 6.29a589.53 589.53 0 0 1 16.88 8.66c5.66 3.05 7.45 2.9 12.13 7.32 2.79 2.64 5.62 5.1 8.18 7.98 1.3 1.45 2.64 3.17 4.34 4.15 2.58 1.48 5.89.3 8.33 2.03 2.48 1.77 3 4.8 4.2 7.36 1.22 2.65 3.76 4.15 4.84 6.9M305.36 198.88c2.87 3.33 5.4 3.16 6.45 4.47 4.56 5.65 12.26 9.46 18.7 12.53 8.2 3.9 16.67 5.96 25.38 8.3 5.54 1.5 16.42 2.22 22.2 1.98 4.52-.18 10.56-1.72 14.87-2.47"/><path stroke="#fff" stroke-linecap="round" stroke-linejoin="round" stroke-width="1.03" d="M284.79 170.17c.53 1.02 2.75 1.31 3.77 1.65 1.86.63 3.49 1.66 5.06 2.85 1.35 1.03 3.54 2.47 2.5 4.35-1.04 1.9-2.8 1.6-4.56 1.33-2.11-.31-4.6.21-6.64-.4"/><path stroke="#fff" stroke-linecap="round" stroke-linejoin="round" stroke-width="1.03" d="M283.3 172.21c1.57.53 12.3 6.84 12.8 7.04M286.32 176.72c.9-.03 6.55 3.35 6.95 3.82"/><path fill="#fff" fill-rule="evenodd" d="M139.43 149.2c0-.06 0-.12.03-.18.05-.1.15-.16.25-.22 7.38-4.4 15.3-8.13 22.88-12.17l9.66-5.14c1.47-.79 7.01-4.69 8.45-3.9.15.08.28.19.4.3 8.28 7.18 15.77 15.06 25.1 20.96a170.88 170.88 0 0 0 23.98 12.6c.83.35 1.67.71 2.52 1.04.95.38 2.06.24 2.91.67.1.06.22.13.27.24.1.2-.06.44-.21.62-1.69 1.9-9.83 8.92-12.5 10.7a74.9 74.9 0 0 1-10.88 5.61c-3.24 1.36-6.17.77-9.51.34-7-.9-13.88-2.58-20.6-4.7a148.58 148.58 0 0 1-20.2-8.07c-4.5-2.2-8.5-5.57-12.3-8.8-1.97-1.66-3.9-3.38-5.8-5.14-1.25-1.14-4.2-2.98-4.44-4.64a1 1 0 0 1 0-.11Z" clip-rule="evenodd"/><path stroke="#fff" stroke-linecap="round" stroke-linejoin="round" stroke-width="1.03" d="M139.43 149.2c0-.06 0-.12.03-.18.05-.1.15-.16.25-.22 7.38-4.4 15.3-8.13 22.88-12.17l9.66-5.14c1.47-.79 7.01-4.69 8.45-3.9.15.08.28.19.4.3 8.28 7.18 15.77 15.06 25.1 20.96a170.88 170.88 0 0 0 23.98 12.6c.83.35 1.67.71 2.52 1.04.95.38 2.06.24 2.91.67.1.06.22.13.27.24.1.2-.06.44-.21.62-1.69 1.9-9.83 8.92-12.5 10.7a74.9 74.9 0 0 1-10.88 5.61c-3.24 1.36-6.17.77-9.51.34-7-.9-13.88-2.58-20.6-4.7a148.58 148.58 0 0 1-20.2-8.07c-4.5-2.2-8.5-5.57-12.3-8.8-1.97-1.66-3.9-3.38-5.8-5.14-1.25-1.14-4.2-2.98-4.44-4.64a1 1 0 0 1 0-.11Z" clip-rule="evenodd"/><path stroke="#1F2573" stroke-linecap="round" stroke-linejoin="round" stroke-width="1.03" d="m152.27 149.29-.4-.01c4.77-2.7 9.72-5.11 14.44-7.88 1.49-.88 1.98-1.37 3.61-1.07 1.3.24 2.65.36 4.01.36 2.92 0 5.83.25 8.78.38 3.03.13 6.07.4 9.04.56-.01 1.89.08 3.85-.1 5.71-.14 1.52-.27 4.98-1.28 6.14-.65.75-2.24 1.38-3.08 2.03-1.07.82-2.04 1.69-3.19 2.42l-5.93 3.8c-2.14 1.4-4.5 2.68-6.69 4-3.67-2.48-7.06-5.43-10.74-7.97-3.2-2.21-7.39-4.8-9.06-8.5"/><path stroke="#1F2573" stroke-linecap="round" stroke-linejoin="round" stroke-width="1.03" d="M170.54 140.1c1.72 2.6 5.5 5.35 8.17 7.38 3.33 2.53 6.67 4.6 10.26 6.77-.05-.17-.18-.16-.27-.25"/><path stroke="#1F2573" stroke-linecap="round" stroke-linejoin="round" stroke-width="1.03" d="M191.01 141.88c-1.36 1.9-6.42 8.84-7.4 9.21"/><path stroke="#1F2573" stroke-linecap="round" stroke-linejoin="round" stroke-width="1.03" d="M191.46 141.9c-5.2 1.67-11.68 1.28-16.93 2.4"/><path stroke="#1F2573" stroke-linecap="round" stroke-linejoin="round" stroke-width="1.03" d="M164.37 146.08c.04-.04 4.72 3.73 4.83 3.64-.1.1 2.36-1.81 3.38-2.32-1.51-1.7-2.4-2.5-3.75-4.19 0 .24-.79.39-.68.5 0 0-2.37 1.66-3.8 2.32-.03.02 0 .08.02.05Z" clip-rule="evenodd"/><path stroke="#1F2573" stroke-linecap="round" stroke-linejoin="round" stroke-width="1.03" d="M175.8 149.12a66.11 66.11 0 0 1-8.21 5.45c1.1.98 2.26 1.77 3.39 2.67.97.78 2.27 2.8 3.53 2.77 1.2-.03 3.29-1.8 4.28-2.48 1.29-.89 2.46-1.87 3.73-2.8-1.17-1.1-2.46-2.17-3.69-3.21-1-.85-2.28-1.32-3.2-2.2.08.13.19.17.3.25M155.78 154.28c.59-1.33 3.14-3.54 3.97-4.15.74-.53 2.5-1.42 3.48-1.36.69.04 2.45 1.29 2.91 1.77-2.43.68-5.91 4.54-6.8 6.8M183.6 158.1c-.04.63 1.97 2.17 2.57 2.72 1.28 1.18 3.07 2.03 4.52 3.09a49.87 49.87 0 0 0 10.59 5.79c-2.42.74-4.45 2.15-6.57 3.45-.77.47-1.77 1.58-2.63 1.72-.77.12-2.17-.64-2.94-.85-4.27-1.17-8.47-3.15-12.4-5.2a66.97 66.97 0 0 1-6.05-3.7c.13.1.27.11.4.18"/><path stroke="#1F2573" stroke-linecap="round" stroke-linejoin="round" stroke-width="1.03" d="M182.43 161.18c.76.6 2.34 1.7 3.31 2.48-1.12.51-1.63 1.56-2.8 1.32-.92-.18-1.67-1.18-2.65-1.42.15-.83 1.78-2.17 2.57-1.92M186.34 167.16c-.41-.81-1.87-1.96-2.35-.48-.52 1.58 2.12 1.53 2.09-.28M183.48 172.11a23.25 23.25 0 0 1 3.7-2.86c1.03-.5 3.24-1.85 4.36-1.86 4.09-.03-3.43 5.62-3.83 6.08M205.3 177.7c2.17-1.6 4.85-2.17 6.7-4.13 4.39-4.64.82-8.9-3.23-11.93a35.48 35.48 0 0 1-4.1-3.88"/><path stroke="#1F2573" stroke-linecap="round" stroke-linejoin="round" stroke-width="1.03" d="M204.53 156.99c-1.2.08-2.32-.83-3.49-1.09-1.39-.31-4.67-.45-5.57.73 1.36 1.21 3.97 1.35 5.7 1.78 1.77.43 3.32.66 5.13.74a8.15 8.15 0 0 0-5.78 1.99c2.02 1.44 5.84.46 8.23.5-1.59.38-4.19 1.03-5.26 2.3 1.8 1.87 5.18-.24 7.28-.26-1.38 1.15-4.21 1.46-5.02 3.2 1.32.75 5.6-.69 7.05-1.34"/><path stroke="#1F2573" stroke-linecap="round" stroke-linejoin="round" stroke-width="1.03" d="M205.63 159.12c.3-1.3 4.45-3.53 5.38-2.16.75 1.1-2.2 3.62-2.46 4.66 1.23-.38 4.45-1.7 5.76-.83 1.66 1.12-1.96 2.37-2.9 3 1.02-.35 7.18-1.58 6.64.97-.32 1.53-4.94.6-5.68.92M205.08 158.05c-1.17-.76-3.58-3.32-1.7-4.7 2.86-2.1 1.39 4.36 1.55 4.7M195.49 176.05c.06-.5 1.68-2.22 2.33-2.29M198.46 176.32a3.97 3.97 0 0 1 1.69-1.26M209.5 179.04a3.96 3.96 0 0 1 1.7-1.27M205.69 174.4c-1.12.52-3.47 2.07-4 2.96M180.19 148.92c1.87-1.26 3.75-2.63 5.74-3.72 1.8-1 3.81-3.12 5.63-3.56"/></g><defs><linearGradient id="a" x1="396.71" x2="557.27" y1="65.38" y2="363.91" gradientUnits="userSpaceOnUse"><stop stop-color="#E3165B"/><stop offset="1" stop-color="#F79500" stop-opacity="0"/></linearGradient><linearGradient id="b" x1="1149.13" x2="581.23" y1="340.62" y2="135.11" gradientUnits="userSpaceOnUse"><stop stop-color="#F3FBFA" stop-opacity="0"/><stop offset=".28" stop-color="#297CBE" stop-opacity=".59"/><stop offset=".36" stop-color="#303AB2"/><stop offset=".47" stop-color="#74EBE3"/></linearGradient><clipPath id="c"><path fill="#fff" d="M0 0h431v335H0z" transform="translate(128 110)"/></clipPath></defs></svg>