<svg width="182" height="240" viewBox="0 0 182 240" xmlns="http://www.w3.org/2000/svg"><title>Group 5</title><g fill="none" fill-rule="evenodd"><path d="M161.616 126.248l6.496-3.664c2.352-1.326 4.507-3.525 6.087-5.997 1.554-2.433 2.525-5.077 2.535-7.34l.16-45.728c.005-.866-.138-1.58-.402-2.14-.217-.454-.523-.794-.9-1.013-.045-.025-.09-.054-.133-.082L103.257 18.56c-.093-.042-.183-.093-.27-.148-.48-.227-1.095-.308-1.82-.227-.903.103-1.946.462-3.077 1.1l-6.704 3.78v62.6l70.23 40.583zm8.69.26l-7.602 4.287v-.002c-.67.375-1.514.398-2.224-.016L88.154 88.982c-.75-.365-1.265-1.134-1.265-2.026V21.93h.004c-.003-.38.096-.77.3-1.124l.104-.18c.197-.374.498-.697.892-.92l7.703-4.342c1.66-.937 3.282-1.476 4.78-1.646 1.667-.187 3.192.083 4.483.768.053.025.104.053.154.082l.128.072-.003.005 72.218 41.732c.108.05.21.106.31.174l.052.037c1.083.67 1.947 1.64 2.536 2.88.538 1.137.832 2.504.825 4.07l-.16 45.727c-.016 3.132-1.254 6.626-3.24 9.734-1.958 3.07-4.675 5.82-7.668 7.51z" fill="#B3B4B4"/><path d="M97.796 62.34l.03-6.31 63.016 39.21 15.875-36.818-72.402-41.84-.127-.07c-1.775-.99-4.348-.793-7.196.813l-7.704 4.343-.15.263v28.305L80.423 81.92l7.605-4.288c5.346-3.016 9.74-9.896 9.766-15.29" fill="#FFF"/><path d="M106.272 67.403l.03-6.314.003-.504.423.265 54.023 21.256 15.578-25.404L104.22 15.03l-.125-.07c-.852-.474-1.908-.657-3.1-.525-1.165.132-2.46.57-3.822 1.34l-7.636 4.306-.076.13V86.5l7.187-4.052c2.632-1.484 5.036-3.925 6.78-6.658 1.744-2.73 2.832-5.745 2.845-8.387zm.586-5.812l-.026 5.814c-.013 2.75-1.135 5.872-2.932 8.687-1.794 2.81-4.264 5.318-6.978 6.848l-7.603 4.29-.42.235V20.135l.038-.14.153-.262.106-.103 7.704-4.343c1.43-.81 2.798-1.268 4.036-1.408 1.123-.128 2.145.008 3.017.386v-.038l.42.243.127.075 72.36 41.813.25.144-.152.245L161.08 82.64l-.147.24-.24-.148-53.835-21.14z" fill="#B3B4B4"/><path d="M33.614 108.97v49.496c0 3.362 1.136 5.762 2.923 6.805v.002l.01.004.003.002 81.237 46.854v-.002c1.497.92 3.494.888 5.625-.355l29.73-17.348c4.618-2.694 8.465-9.894 8.465-16.073v-49.518L80.424 81.92l-46.81 27.05" fill="#FFF"/><path d="M23.506 127.126v48.202c0 1.338.208 2.454.58 3.32.308.723.72 1.243 1.198 1.527.053.03.103.06.154.095l72.498 41.806c.124.056.24.12.348.195.354.19.77.278 1.23.25.598-.04 1.272-.262 2.004-.69l50.5-29.347c1.945-1.134 3.767-3.297 5.12-5.87 1.365-2.593 2.218-5.55 2.218-8.26v-48.226l-70.52-40.754-65.33 37.753zm-4.498 48.202v-49.495h.005c0-.774.4-1.528 1.12-1.944l67.56-39.042c.674-.398 1.54-.43 2.266-.01l72.628 41.972c.75.364 1.266 1.133 1.266 2.024v49.52c0 3.442-1.054 7.143-2.743 10.353-1.724 3.277-4.154 6.093-6.843 7.664l-50.498 29.35c-1.354.788-2.7 1.204-3.973 1.283-1.448.093-2.79-.245-3.946-.954v-.004l-72.6-41.864c-.128-.06-.253-.132-.368-.213-1.254-.784-2.255-1.99-2.927-3.548-.608-1.414-.947-3.134-.947-5.094z" fill="#B3B4B4"/><path d="M21.552 125.883v49.493c0 3.368 1.135 5.762 2.923 6.804l.01.006 68.887 39.833c2.19 1.265 3.653 1.9 6.05 2.16l26.313-21.62c4.65-2.663 8.464-9.896 8.464-16.075v-41.47l-39.77 22.072-72.878-41.204" fill="#F6F6F6"/><path d="M21.645 126.043v49.223c0 1.613.264 2.992.74 4.098.483 1.126 1.184 1.963 2.043 2.463l.008.006h.002l.01.006h.004l.002.003 73 42.21.663-3.23.025-.125.11-.064 27.344-18.32c2.277-1.303 4.355-3.736 5.866-6.606 1.514-2.874 2.454-6.182 2.454-9.225V145.5l-39.348 22.163-.14.08-.138-.08-72.645-41.62zm-.45 49.67l.02.276-.13-.724c0 1.69.28 3.146.785 4.32l-.198-1.084.206.822.386.735-.393-.474c.444 1.043 1.07 1.88 1.825 2.437.144.106.294.202.446.287l-.37-.445.05.012.32.433h.004l.014.01.66.383 72.69 42.03.34.195.077-.38.715-3.49 27.232-18.256c2.376-1.357 4.53-3.874 6.088-6.832 1.553-2.952 2.52-6.35 2.52-9.485v-41.958l-.42.245L94.43 167.1l-72.926-41.784-.42-.243v50.193l.11.447z" fill="#B3B4B4"/><path d="M94.59 167.385v49.403c0 6.162 3.823 9.05 8.465 6.397l50.086-28.76c4.642-2.654 8.466-9.897 8.466-16.074v-49.516l-66.863 38.64-.153-.09" fill="#FFF"/><path d="M94.796 167.766v49.065c0 1.953.39 3.563 1.07 4.753.435.762.987 1.352 1.63 1.75.637.394 1.37.6 2.173.6.97 0 2.043-.304 3.17-.95l50.164-28.8c2.273-1.3 4.354-3.737 5.864-6.61 1.514-2.874 2.456-6.18 2.456-9.223v-49.03L94.808 167.76l-.012.008zm-.562 49.065v-49.89l.42.244.012.006 67.22-38.843v50.003c0 3.133-.97 6.532-2.522 9.483-1.56 2.962-3.716 5.48-6.085 6.836l-50.164 28.8c-1.215.697-2.382 1.025-3.45 1.025-.902 0-1.735-.236-2.464-.688-.726-.447-1.344-1.104-1.824-1.947-.726-1.274-1.144-2.98-1.144-5.03z" fill="#B3B4B4"/><path fill="#CBCCCB" d="M88.705 86.706l72.9 42.128-67.002 38.544-72.75-42.04 66.852-38.632"/><path fill="#DFDFDE" d="M141.01 121.34l12.547 7.252-12.547 7.087v-14.34"/><path fill="#FFFFFE" d="M49.986 113.752l.008-4.325-28.205 16.22 72.778 42.016 66.905-38.585-16.33-9.433-4.014 1.762 11.723 7.426-58.34 33.72-54.428-30.973-10.837-5.512 20.738-12.316"/><path d="M88.894 86.493l72.85 42.1c.136.076.18.248.103.382-.026.044-.062.078-.103.1v.002l-66.972 38.695c-.098.056-.212.047-.297-.012l-73.088-42.028c-.133-.077-.178-.248-.102-.382.025-.043.06-.078.102-.102l67.227-38.755c.088-.053.194-.052.28 0zm72.147 42.34L88.755 87.06l-66.667 38.43 72.546 41.716 66.408-38.373z" fill="#B3B4B4"/><path d="M178.976 109.255l.16-45.73c.024-5.394-4.342-7.33-9.676-4.323l-7.702 4.345-.152.26v65.026l7.603-4.288c5.346-3.016 9.74-9.894 9.766-15.29" fill="#FFF"/><path d="M178.696 109.253l.16-45.728c.007-1.323-.26-2.427-.744-3.287-.395-.702-.938-1.244-1.597-1.607-.662-.37-1.448-.56-2.323-.563-1.353-.008-2.922.438-4.595 1.38l-7.908 4.455-.076.134v64.467l7.46-4.2c2.63-1.486 5.033-3.928 6.777-6.66 1.745-2.732 2.833-5.747 2.846-8.39zm.72-45.725l-.16 45.727c-.013 2.752-1.135 5.875-2.93 8.688-1.796 2.807-4.265 5.317-6.98 6.848l-7.873 4.44-.417.236V63.958l.037-.142.152-.26.105-.105 7.974-4.495c1.758-.99 3.42-1.458 4.872-1.45.968.003 1.845.22 2.592.634.75.415 1.366 1.03 1.813 1.823.53.94.82 2.137.816 3.563z" fill="#B3B4B4"/><path fill="#FFFFFE" d="M89.224 87.007V21.982l72.382 41.828v65.024L89.224 87.007"/><path d="M157.592 126.9l-4.88-2.81 4.88 2.81zm0 0l-.002-61.106-65.548-38.008.28 17.454.04 43.257 59.005 34.818 6.225 3.586z" fill="#EBECEB"/><path d="M92.323 40.04l.04 48.457 53.095 31.33v-42.06c0-3.736-2.28-8.123-5.067-9.746L92.324 40.04" fill="#D5D6D5"/><path d="M157.976 126.736l-.56-.324v-60.62l-65.11-37.76v60.774l-.56-.323v-60.94c0-.154.125-.28.28-.28.057 0 .112.018.157.048l65.653 38.078c.088.052.14.144.14.243v61.106" fill="#B3B4B4"/><path d="M88.793 86.92V21.897c0-.157.126-.282.28-.282.06 0 .113.018.16.048l72.242 41.905c.088.052.14.145.14.243v65.024c0 .155-.126.282-.28.282-.06 0-.114-.02-.156-.05L88.932 87.165c-.09-.053-.14-.148-.14-.243zm.56-64.538V86.76l71.7 41.587V63.97l-71.7-41.588z" fill="#B3B4B4"/><path d="M61.026 166.897l-9.305-5.412-3.06 2.17 2.138 4.653 3.272 10.055 2.642 3.283c3.775-2.254 4.228-2.758 4.314-6.005v-8.743" fill="#EBECEB"/><path d="M60.604 167.14l-8.862-5.155-2.554 1.812 1.975 4.298 3.245 10.014 2.402 2.987c1.642-.988 2.584-1.62 3.103-2.33.53-.724.652-1.6.69-3.126v-8.5zm-8.672-6.02l9.28 5.4c.14.067.236.21.236.376V175.65c-.048 1.715-.196 2.712-.855 3.615-.637.87-1.722 1.583-3.647 2.734-.18.118-.424.08-.56-.09l-2.642-3.283-.015-.02-3.274-10.054h.002c-.017-.023-.03-.047-.04-.07l-2.13-4.635c-.097-.184-.044-.415.13-.536l3.058-2.17c.13-.093.307-.107.456-.02z" fill="#B3B4B4"/><path d="M57.967 168.8l-9.306-5.144v9.876c0 7.872 9.307 11.52 9.307 5.343V168.8" fill="#F6F6F6"/><path d="M57.545 169.047l-8.463-4.678v9.16c0 3.52 1.942 6.15 4.006 7.345.6.345 1.21.57 1.78.655.542.08 1.043.03 1.458-.156.73-.334 1.22-1.138 1.22-2.5v-9.827zm-8.683-5.76l9.283 5.13c.144.066.243.214.243.38v10.077c0 1.74-.688 2.8-1.717 3.267-.563.26-1.225.327-1.922.223-.674-.1-1.387-.36-2.082-.763-2.28-1.32-4.427-4.21-4.427-8.07v-9.877c0-.068.02-.138.053-.202.11-.2.367-.274.57-.164zM135.268 118.02l18.29 10.572c.134.077.18.25.1.383-.025.044-.06.078-.102.1v.002L94.652 163.12c-.098.055-.212.046-.297-.013L29.25 126.07c-.135-.077-.18-.25-.104-.382.026-.044.06-.08.103-.103l19.202-11.028v.643l-18.504 10.627 64.564 36.726 58.34-33.72-17.584-10.162v-.65" fill="#B3B4B4"/><path d="M146.45 34.078c11.334 6.558 20.52 23.946 20.52 38.837 0 8.225-2.803 13.967-7.223 16.353v.003l-.033.017c-.362.192-.734.364-1.117.512l-8.33 3.833-2.046-4.706c-.583-.274-1.173-.58-1.77-.925-11.333-6.557-20.522-23.945-20.522-38.836 0-3.282.447-6.168 1.266-8.606l-1.826-4.197 7.922-3.626c3.563-1.853 8.15-1.557 13.16 1.34" fill="#0092BA"/><path d="M137.55 38.15c11.333 6.56 20.522 23.946 20.522 38.837 0 14.89-9.19 21.645-20.522 15.087-11.333-6.557-20.52-23.944-20.52-38.836 0-14.89 9.187-21.647 20.52-15.088" fill="#2EBCE3"/><path d="M141.183 93.755c-1.18-.406-2.393-.963-3.633-1.68-11.333-6.558-20.52-23.945-20.52-38.837 0-.22 0-.435.006-.65l19.08 11.104c2.788 1.624 5.067 6.01 5.067 9.747v20.315" fill="#009DC9"/><path d="M137.55 47.204c3.757 2.17 7.158 6.14 9.62 10.804 2.462 4.663 3.985 10.022 3.985 14.967s-1.523 8.542-3.985 10.36c-2.462 1.818-5.863 1.857-9.62-.315-3.758-2.17-7.158-6.14-9.62-10.804-2.462-4.662-3.985-10.02-3.985-14.965 0-4.944 1.523-8.54 3.984-10.36 2.462-1.817 5.862-1.858 9.62.314zm2.023 9.648l-.015 11.775c-.145.54-.585.743-1.103.455-.037-.02-.075-.04-.11-.064l-6.066-3.504c-.646-.373-1.174-1.374-1.174-2.224 0-.85.527-1.24 1.173-.865l4.69 2.71.04-10.195c.01-2.595 2.566-.18 2.563 1.912zm5.926 2.39c-2.035-3.854-4.845-7.133-7.95-8.928-3.104-1.795-5.916-1.762-7.95-.26s-3.293 4.475-3.293 8.563c0 4.085 1.26 8.512 3.293 12.366 2.034 3.854 4.846 7.135 7.95 8.93 3.105 1.793 5.915 1.76 7.95.258 2.034-1.5 3.292-4.473 3.292-8.56 0-4.087-1.258-8.514-3.293-12.37z" fill="#FFFFFE"/><path d="M141.183 84.475c-1.156-.248-2.375-.726-3.633-1.455-3.758-2.17-7.158-6.14-9.62-10.804-2.462-4.662-3.985-10.02-3.985-14.965 0-.214.003-.427.01-.635l2.362 1.376c-.006.206-.01.414-.01.627 0 4.085 1.26 8.512 3.293 12.366 2.034 3.854 4.846 7.135 7.95 8.93 1.27.734 2.492 1.16 3.633 1.308v3.255zM139.56 67.52c-.707-1.292-1.6-2.425-2.586-3.23l-.004.845-4.69-2.71c-.647-.375-1.174.016-1.174.865 0 .85.528 1.85 1.173 2.224l6.064 3.504c.036.024.074.045.11.064.52.288.96.084 1.104-.455V67.52z" fill="#E3E4E2"/><path d="M127.665 69.924L56.937 28.727c-.374-.22-.63-.327-.787-.327-.138 0-.345.096-.643.282l-2.408 1.49c-.76.468-1.29.805-1.496 1.103-.185.268-.268.766-.268 1.716l-.04 96.835 48.108 30.28-5.147 2.89-17.334-10-21.257-12.27c-4.98-2.873-8.852-6.775-8.85-14.737l.038-92.996c0-1.955.33-3.208 1.06-4.267.707-1.028 1.592-1.605 2.83-2.37l2.408-1.49c1.005-.62 1.935-.943 2.978-.948 1.017-.005 1.98.297 3.058.922l70.727 41.198c1.775 1.033 3.345 2.866 4.45 4.987 1.074 2.07 1.744 4.47 1.744 6.703v60.784l-4.502 2.6V77.727c0-1.502-.473-3.164-1.234-4.628-.734-1.413-1.696-2.585-2.71-3.174" fill="#B3B4B4"/><path d="M128.79 67.98L58.053 26.805c-1.732-1.006-2.85-.546-4.008.162l-3.232 1.917 1.857 2.51 12.693 77.77c.604 3.686 2.677 7.58 5.068 9.745l36.347 36.556 27.08-15.652V77.726c0-3.734-2.278-8.123-5.067-9.745" fill="#F6F6F6"/><path d="M128.65 68.223L57.912 27.048c-.808-.47-1.464-.598-2.046-.527-.59.073-1.126.35-1.676.688h-.002l-2.966 1.76 1.674 2.26.05.123 12.695 77.77c.294 1.794.943 3.64 1.81 5.308.882 1.697 1.99 3.205 3.17 4.274l36.41 32.973-.51.295-36.277-32.854c-1.234-1.115-2.382-2.677-3.292-4.43-.89-1.716-1.56-3.62-1.864-5.48l-12.68-77.7-1.818-2.456-.185-.25.268-.16 3.232-1.917v.002c.608-.374 1.207-.68 1.898-.763.698-.085 1.468.06 2.393.6L128.93 67.74c1.442.838 2.747 2.38 3.69 4.192.936 1.805 1.52 3.884 1.52 5.796v61.924l-.56.324V77.726c0-1.823-.56-3.81-1.458-5.537-.897-1.722-2.125-3.184-3.472-3.967" fill="#B3B4B4"/><path d="M124.89 70.35L54.115 29.158c-2.788-1.626-5.067.1-5.067 3.835v101.88l47.046 26.775 9.084-5.09 24.776-14.49v-61.97c0-3.735-2.278-8.123-5.067-9.746" fill="#FFF"/><path fill="#E3E4E2" d="M54.073 137.73l42.023 23.917 7.152-4.006-40.81-23.027-8.365 3.116"/><path d="M49.05 101.38v25.564l19.108 10.404c4.928-11.215-1.534-28.63-11.78-34.556-2.7-1.564-5.216-1.98-7.33-1.412" fill="#F6F6F6"/><path d="M124.75 70.593L53.976 29.397c-.667-.388-1.3-.57-1.867-.57-.448 0-.857.113-1.213.332-.36.22-.674.55-.922.977-.41.704-.644 1.672-.644 2.855v82.765c0 4.716 1.028 8.632 6.872 12.378l-5.802-2.547-1.633-1.804V32.992c0-1.283.265-2.346.723-3.137.297-.507.673-.906 1.116-1.175.444-.275.955-.416 1.504-.416.664 0 1.392.208 2.147.65l70.773 41.194c1.44.84 2.747 2.384 3.69 4.195.936 1.803 1.52 3.88 1.52 5.795v61.806l-.566.325V80.097c0-1.824-.557-3.81-1.455-5.537-.897-1.722-2.125-3.184-3.47-3.967" fill="#B3B4B4"/><path fill="#CBCCCB" d="M54.975 49.654l13.183 7.617.474.274 13.18 7.618.475.274.16.09L96.1 73.42l13.022 7.526.475.274 13.81 7.982v56.65l-.63.365V89.563l-13.023-7.525v71.758l-.633.363V81.67l-13.022-7.524v87.5h-.006l-.628-.357V73.78l-13.022-7.525v87.622l-.633-.36V65.89L68.79 58.365v87.74l-.632-.36V58l-13.024-7.526v87.863l-.632-.36V49.38l.473.274"/><path d="M58.378 56.588l6.4 3.706c1.545.894 2.81 3.402 2.81 5.572v5.636c0 .833-.188 1.5-.506 1.955-.385.557-1 .692-1.57.96l-6.35 2.982h-.006l-.004.003c-.467.22-1.047.175-1.673-.186l-6.402-3.707c-1.543-.896-2.806-3.402-2.806-5.572v-5.636c0-1.215.395-2.078 1.016-2.443v-.004c.08-.045.163-.083.247-.114l7-3.246c.495-.32 1.14-.315 1.843.092" fill="#E3E4E2"/><path d="M59.325 54.95l6.402 3.706c1.095.635 2.058 1.773 2.723 3.093.635 1.263 1.032 2.737 1.032 4.116v5.636c0 .548-.07 1.076-.196 1.57v.007c-.143.55-.365 1.04-.653 1.456l.005.003c-.612.878-1.308 1.164-2.026 1.458-.09.036-.182.075-.302.13l-6.36 2.987c-.554.26-1.162.364-1.798.293-.532-.06-1.08-.24-1.62-.555l-6.402-3.707c-1.095-.635-2.058-1.77-2.723-3.092-.636-1.263-1.032-2.737-1.032-4.116v-5.636c0-.846.15-1.605.415-2.242.31-.75.784-1.338 1.382-1.735.105-.078.216-.14.33-.194.102-.05.204-.098.308-.137l6.862-3.184c.546-.314 1.16-.463 1.812-.43.606.03 1.23.215 1.84.57zm4.506 6.98l-6.452-3.736-.164.072-6.962 3.23c.015-.002.04-.006.03.017-.074.18-.115.445-.115.79v5.635c0 .79.236 1.658.617 2.41.35.7.795 1.265 1.242 1.524l6.478 3.747 6.208-2.914c.138-.066.31-.137.48-.205.176-.07.324-.107.336-.125h.008c.03-.045.063-.127.093-.245.04-.154.06-.363.06-.628v-5.636c0-.792-.236-1.657-.617-2.413-.35-.698-.794-1.262-1.242-1.522z" fill="#E94C6D"/><path d="M58.378 56.588l6.402 3.707c1.544.894 2.807 3.4 2.807 5.57v5.637c0 1.128-.342 1.95-.885 2.356-.27.2-.966.455-1.305.614l-6.245 2.93-.848-4.824.074-2.464c.043-1.448-2.214-2.337-2.62-4.05l-6.47-6.205 7.247-3.364c.495-.32 1.14-.315 1.843.092" fill="#F4C5C3"/><path d="M58.536 56.315l6.402 3.707c.825.478 1.57 1.377 2.105 2.438.53 1.05.86 2.272.86 3.406v5.636c0 .59-.09 1.107-.25 1.536-.152.404-.368.73-.635.97v.076l-.173.058c-.225.153-.61.315-.94.453-.137.057-.266.11-.374.162l-6.616 3.106-.92-5.232-.004-.06.073-2.465c.018-.613-.53-1.167-1.113-1.758-.602-.608-1.238-1.252-1.476-2.118l-6.74-6.464 7.654-3.55c.302-.19.65-.28 1.022-.262.356.018.735.135 1.126.36zm6.086 4.252L58.22 56.86c-.3-.173-.583-.262-.84-.276-.25-.012-.478.05-.673.175l-.044.013.005.01-6.83 3.167 6.138 5.888.088.153c.177.744.772 1.346 1.333 1.912.683.69 1.32 1.338 1.295 2.22l-.07 2.43.77 4.39 5.87-2.756c.097-.045.245-.107.4-.173.31-.13.667-.282.832-.394l.02-.015c.23-.17.417-.438.548-.79.135-.355.21-.797.21-1.313v-5.636c0-1.036-.305-2.155-.79-3.123-.484-.957-1.143-1.76-1.86-2.176z" fill="#E94C6D"/><path d="M51.078 59.983l6.25 3.618c1.543.895 2.807 3.403 2.807 5.572v5.637c0 2.168-1.264 3.212-2.807 2.318l-6.25-3.618c-1.543-.896-2.806-3.402-2.806-5.572v-5.636c0-2.17 1.263-3.214 2.806-2.32" fill="#FFF"/><path d="M51.236 59.71l6.25 3.62c.826.477 1.572 1.375 2.106 2.436.53 1.05.86 2.27.86 3.406v5.637c0 .8-.166 1.467-.452 1.962-.182.312-.412.557-.682.727-.278.173-.59.264-.93.264-.38 0-.792-.116-1.218-.363l-6.25-3.618c-.826-.478-1.572-1.378-2.106-2.44-.53-1.05-.86-2.27-.86-3.404v-5.636c0-.802.166-1.468.452-1.963.182-.314.412-.56.68-.73.28-.173.593-.264.93-.264.38 0 .794.117 1.22.363zm5.934 4.165l-6.25-3.62c-.325-.188-.63-.276-.903-.276-.22 0-.42.056-.595.164-.182.116-.343.288-.47.51-.232.4-.364.96-.364 1.648v5.636c0 1.037.302 2.155.788 3.12.483.96 1.142 1.763 1.86 2.18l6.25 3.617c.323.187.63.277.903.277.22 0 .42-.057.594-.166.18-.114.34-.286.47-.51.23-.4.364-.958.364-1.647V69.17c0-1.036-.302-2.155-.79-3.123-.482-.958-1.14-1.76-1.858-2.175z" fill="#E94C6D"/><path fill="#B3B4B4" d="M115.4 80.144v-4.646l2.48 1.434v.786l-1.75-1.012v1.104l1.514.874v.785l-1.514-.875v1.973l-.73-.423M102.942 72.947v-3.862l-1.07-.62v-.784l2.866 1.658v.785l-1.064-.615v3.86l-.732-.42M87.68 64.127l-.85-5.138.75.434.538 3.502.66-2.812.87.502.628 3.61.55-2.927.736.423-.87 4.144-.782-.45-.71-3.888-.72 3.06-.8-.463M59.516 47.852v-4.647l1.096.634.647 3.54.638-2.798 1.098.635v4.645l-.676-.39-.002-3.66-.712 3.247-.702-.407-.71-4.068-.002 3.657-.676-.39"/><path fill="#E94C6D" d="M74.714 141.648h.79V51.133h-.79"/><path d="M75.3 45.832c2.432 1.406 4.403 5.137 4.403 8.33 0 3.196-1.97 4.646-4.402 3.238-2.432-1.406-4.403-5.137-4.403-8.332 0-3.194 1.97-4.644 4.404-3.236" fill="#E94C6D"/><path fill="#FFFFFE" d="M74.538 53.93v-3.753l-1.07-.618v-1.223l3.244 1.874v1.224l-1.064-.614v3.86l-1.11-.642v-.107"/><path d="M92.768 128.74l27.476 15.922c.76.44 1.455 1.122 2.032 1.94l-3.294 1.904c-.203-.248-.418-.443-.633-.568l-27.53-15.952-.163.072-6.885 3.195-.085.034c.01 0 .05-.01.04.016-.075.18-.117.446-.117.79v5.636c0 .79.236 1.655.618 2.41.352.7.795 1.265 1.242 1.523l19.19 11.12-3.78 2.184-17.305-10.03c-1.096-.634-2.06-1.77-2.723-3.092-.637-1.264-1.033-2.737-1.033-4.116v-5.636c0-.848.147-1.605.412-2.243.31-.747.785-1.337 1.383-1.735.083-.06.17-.113.26-.158l.016-.01c.103-.052.214-.103.334-.148l6.893-3.2c.545-.312 1.158-.46 1.81-.428.605.03 1.228.215 1.84.57zm-9.084 6.546h.004-.004z" fill="#2EBCE3"/><path d="M91.82 130.38l27.477 15.92c.482.28.937.717 1.334 1.252L106.015 156l-9.973-9.65-4.044-2.343c-1.19-.69-2.214-2.336-2.62-4.05l-6.646-6.308 7.248-3.364.002.002c.494-.322 1.138-.317 1.84.09" fill="#DBEEF7"/><path d="M91.98 130.105l27.475 15.923c.528.305 1.023.783 1.45 1.366l-.548.316c-.366-.488-.78-.884-1.218-1.137l-27.477-15.92c-.3-.176-.582-.264-.838-.277-.252-.013-.48.048-.674.175l-.294.193-.022-.042-6.55 3.04 6.31 5.99.09.154c.197.836.547 1.654.992 2.34.426.66.936 1.196 1.478 1.51l4.044 2.342.06.046 10.04 9.714-.568.33-9.88-9.564-4.012-2.322c-.63-.364-1.213-.974-1.69-1.712-.47-.724-.84-1.577-1.058-2.447l-6.913-6.562 7.66-3.554c.3-.187.644-.277 1.016-.26.356.02.736.136 1.126.36" fill="#2EBCE3"/><path d="M84.522 133.774l27.684 16.042c.602.35 1.162.945 1.62 1.668l-11.057 6.39-18.248-10.572c-1.543-.894-2.806-3.402-2.806-5.57v-5.638c0-2.17 1.263-3.214 2.806-2.32" fill="#FFF"/><path d="M84.68 133.502l27.684 16.042c.65.376 1.25 1.012 1.736 1.783l-.546.316c-.43-.68-.952-1.233-1.506-1.554l-27.684-16.042c-.323-.19-.63-.277-.903-.277-.22 0-.42.06-.594.166-.18.114-.34.287-.47.51-.232.4-.364.96-.364 1.648v5.637c0 1.035.302 2.154.79 3.122.482.957 1.14 1.76 1.858 2.176l18.404 10.666-.63.363-18.09-10.483c-.826-.48-1.57-1.378-2.106-2.44-.53-1.05-.858-2.27-.858-3.403v-5.636c0-.802.164-1.47.45-1.962.18-.312.412-.56.682-.73.278-.173.59-.264.93-.264.38 0 .794.118 1.218.364" fill="#2EBCE3"/><path d="M82.383 105.25l27.667 16.023c1.544.895 2.808 3.402 2.808 5.572v5.636c0 1.13-.34 1.95-.886 2.357-.158.12-.332.2-.52.245l-7.02 3.296-.01.004c-.467.22-1.046.175-1.672-.188l-27.667-16.02c-1.544-.894-2.806-3.402-2.806-5.57v-5.637c0-1.216.395-2.078 1.016-2.444h.002c.08-.048.16-.086.246-.116l7-3.248c.495-.32 1.14-.316 1.843.09" fill="#E3E4E2"/><path d="M83.33 103.614L111 119.636c1.096.635 2.058 1.773 2.723 3.092.636 1.264 1.033 2.737 1.033 4.117v5.637c0 .776-.128 1.482-.356 2.09-.268.714-.675 1.29-1.192 1.706-.097.083-.2.155-.308.215-.118.075-.244.145-.375.207-.146.067-.29.124-.43.17-2.215 1.04-4.81 2.435-7.036 3.296-.51.208-1.06.285-1.633.22-.534-.058-1.08-.24-1.62-.552l-27.667-16.022c-1.097-.635-2.057-1.773-2.723-3.092-.637-1.265-1.03-2.74-1.03-4.117v-5.636c0-.848.146-1.605.412-2.243.31-.748.783-1.338 1.382-1.735.082-.06.167-.113.255-.158.11-.058.227-.11.353-.16l6.893-3.2c.547-.31 1.157-.46 1.812-.43.605.033 1.228.218 1.84.572zm25.772 19.298L81.384 106.86l-.165.07-6.886 3.196-.085.035c.01 0 .05-.01.04.017-.076.18-.118.444-.118.79v5.636c0 .79.237 1.656.617 2.412.35.698.794 1.262 1.24 1.522l27.745 16.063 6.746-3.168c.102-.057.21-.107.325-.145l.014-.048c.064-.178.102-.432.102-.758v-5.637c0-.792-.237-1.657-.618-2.412-.35-.7-.794-1.263-1.242-1.52zM74.247 110.16h.002-.003z" fill="#98CA3C"/><path d="M82.383 105.25l27.667 16.023c1.544.895 2.808 3.402 2.808 5.572v5.636c0 1.13-.34 1.95-.886 2.357-.158.12-.332.2-.52.245l-7.03 3.3-17.996-17.26-4.043-2.343c-1.19-.69-2.214-2.338-2.62-4.05l-6.47-6.207 7.248-3.364c.495-.32 1.14-.316 1.843.09" fill="#E5EDD0"/><path d="M82.54 104.98L110.21 121c.825.48 1.572 1.378 2.106 2.44.53 1.05.86 2.27.86 3.405v5.637c0 .588-.09 1.106-.252 1.535-.124.33-.292.61-.493.83l.16.16-.485.122c-.08.054-.163.103-.25.143-.098.046-.2.083-.303.11l-7.19 3.376-18.126-17.385-4.01-2.323c-.63-.366-1.214-.974-1.69-1.71-.47-.726-.84-1.58-1.06-2.45l-6.735-6.462 7.654-3.55c.123-.078.253-.138.39-.18l.07-.035v.012c.18-.05.367-.068.56-.058.357.017.738.133 1.127.36zm27.352 16.566l-27.667-16.02c-.3-.175-.582-.264-.84-.277-.25-.014-.478.048-.674.173l-.485.317v-.086l-6.38 2.96 6.136 5.887.09.157c.198.835.55 1.653.993 2.34.425.657.936 1.195 1.478 1.51l4.044 2.34.06.046 17.84 17.112 6.833-3.207.062-.023c.074-.018.143-.042.21-.072.056-.028.112-.06.167-.1l.027-.02c.228-.17.418-.438.55-.788.133-.357.208-.8.208-1.313v-5.637c0-1.036-.303-2.155-.79-3.123-.484-.958-1.142-1.76-1.86-2.176z" fill="#98CA3C"/><path d="M75.083 108.646l27.667 16.02c1.544.897 2.808 3.403 2.808 5.574v5.636c0 2.17-1.264 3.214-2.808 2.32l-27.667-16.023c-1.544-.893-2.806-3.4-2.806-5.57v-5.636c0-2.17 1.262-3.214 2.806-2.32" fill="#FFF"/><path d="M75.24 108.374l27.668 16.02c.827.48 1.572 1.38 2.107 2.44.53 1.05.86 2.272.86 3.406v5.636c0 .8-.167 1.47-.452 1.962-.18.312-.412.56-.682.728-.277.174-.59.265-.927.265-.382 0-.793-.116-1.22-.362l-27.668-16.02c-.826-.48-1.57-1.378-2.106-2.44-.53-1.05-.86-2.27-.86-3.406v-5.635c0-.802.165-1.47.45-1.963.182-.314.413-.56.683-.73.278-.172.592-.263.93-.263.38 0 .792.117 1.218.364zm27.352 16.568L74.925 108.92c-.323-.188-.63-.277-.903-.277-.22 0-.42.057-.596.166-.18.112-.34.285-.47.51-.23.398-.364.957-.364 1.647v5.635c0 1.036.303 2.155.79 3.123.482.958 1.143 1.76 1.86 2.176l27.666 16.023c.325.187.63.275.905.275.22 0 .42-.057.595-.165.18-.114.34-.286.47-.51.23-.4.364-.96.364-1.647v-5.636c0-1.036-.303-2.156-.79-3.123-.484-.957-1.142-1.76-1.86-2.175z" fill="#98CA3C"/><path d="M73.35 80.404l36.7 21.252c1.544.893 2.808 3.4 2.808 5.57v5.636c0 1.127-.34 1.95-.886 2.357-.158.116-.332.198-.52.244l-7.02 3.296h-.005l-.004.004c-.468.22-1.048.175-1.673-.186L66.053 97.326c-1.544-.895-2.808-3.4-2.808-5.572V86.12c0-1.218.397-2.08 1.016-2.446l.003-.002c.08-.046.16-.084.247-.113l7-3.25c.493-.32 1.138-.313 1.84.094" fill="#E3E4E2"/><path d="M74.3 78.766l36.698 21.25c1.096.636 2.058 1.774 2.723 3.094.638 1.262 1.033 2.738 1.033 4.117v5.635c0 .778-.128 1.484-.356 2.092-.268.712-.675 1.29-1.192 1.706-.097.083-.2.155-.308.214-.118.076-.244.144-.375.208-.146.067-.29.123-.43.17l-6.76 3.172c-.06.032-.12.06-.18.086l-.093.037c-.512.207-1.062.287-1.637.22-.532-.058-1.08-.24-1.62-.553l-36.698-21.25c-1.097-.636-2.058-1.774-2.723-3.094-.637-1.262-1.032-2.737-1.032-4.116V86.12c0-.848.148-1.607.413-2.245.3-.72.754-1.295 1.328-1.693.12-.094.247-.17.38-.23l.123-.062.217-.093 6.837-3.17c.546-.314 1.157-.463 1.81-.43.606.03 1.23.214 1.842.57zm34.802 24.526l-36.75-21.28-.165.07-6.95 3.228c.015-.002.027.002.02.02-.075.178-.117.444-.117.79v5.634c0 .79.237 1.657.618 2.412.352.698.795 1.264 1.242 1.522l36.774 21.294 6.747-3.168c.102-.057.21-.107.325-.146l.014-.048c.064-.176.102-.43.102-.758v-5.635c0-.792-.237-1.657-.618-2.413-.35-.698-.794-1.262-1.242-1.522zM65.212 85.31l-.007.003.006-.003z" fill="#2EBCE3"/><path d="M73.35 80.404l36.7 21.252c1.544.893 2.808 3.4 2.808 5.57v5.636c0 1.127-.34 1.95-.886 2.357-.158.116-.334.198-.52.244l-7.03 3.3-26.852-22.39-4.043-2.342c-1.19-.69-2.214-2.337-2.62-4.05l-6.646-6.308 7.25-3.363c.493-.32 1.138-.313 1.84.094" fill="#DBEEF7"/><path d="M73.51 80.13l36.698 21.25c.826.48 1.572 1.38 2.106 2.44.53 1.05.86 2.272.86 3.407v5.635c0 .59-.09 1.108-.252 1.537-.124.33-.292.607-.494.83l.077.075-.37.184c-.087.062-.182.118-.28.165-.1.047-.202.083-.304.11l-7.173 3.37-26.985-22.5-4.023-2.33c-.63-.365-1.214-.973-1.692-1.71-.47-.725-.84-1.58-1.058-2.45l-6.913-6.562 7.66-3.554c.3-.188.645-.278 1.016-.26.356.018.737.135 1.126.36zm36.382 21.798l-36.7-21.252c-.298-.172-.58-.262-.838-.275-.25-.01-.478.05-.672.176l-.296.192-.02-.042-6.552 3.04 6.31 5.988.09.155c.197.835.55 1.654.992 2.34.426.658.937 1.195 1.48 1.51l4.042 2.34.044.032 26.7 22.26 6.845-3.214.06-.02c.077-.02.148-.044.21-.073.055-.027.11-.057.16-.093l.037-.026c.228-.172.418-.44.55-.79.133-.356.208-.798.208-1.314v-5.635c0-1.036-.303-2.156-.79-3.124-.484-.957-1.142-1.76-1.86-2.175z" fill="#2EBCE3"/><path d="M66.053 83.8l36.697 21.25c1.544.893 2.808 3.4 2.808 5.57v5.637c0 2.17-1.264 3.214-2.808 2.32l-36.697-21.25c-1.544-.896-2.807-3.402-2.807-5.573V86.12c0-2.17 1.263-3.215 2.807-2.32" fill="#FFF"/><path d="M66.21 83.526l36.698 21.25c.827.48 1.572 1.377 2.107 2.438.53 1.052.86 2.273.86 3.407v5.637c0 .802-.167 1.468-.452 1.963-.18.312-.412.56-.682.728-.277.173-.59.265-.927.265-.382 0-.795-.117-1.22-.363L65.894 97.6c-.825-.48-1.57-1.38-2.107-2.44-.53-1.05-.858-2.27-.858-3.406V86.12c0-.803.165-1.47.45-1.964.18-.312.412-.56.683-.727.278-.176.59-.267.928-.267.383 0 .795.117 1.22.363zm36.382 21.796l-36.697-21.25c-.324-.188-.63-.276-.904-.276-.22 0-.42.057-.594.167-.182.112-.34.285-.47.51-.23.398-.365.958-.365 1.646v5.634c0 1.036.304 2.156.792 3.123.483.957 1.14 1.76 1.86 2.177l36.696 21.25c.324.188.63.277.905.277.22 0 .42-.057.594-.165.182-.113.34-.288.47-.51.23-.4.365-.96.365-1.648v-5.636c0-1.034-.303-2.154-.79-3.12-.484-.96-1.142-1.762-1.86-2.178z" fill="#2EBCE3"/><path d="M75.3 141.61c.99.573 1.794 2.094 1.794 3.396 0 1.303-.803 1.893-1.793 1.32-.99-.574-1.795-2.094-1.795-3.396 0-1.303.804-1.892 1.796-1.32" fill="#E94C6D"/><path d="M51.726 102.405c7.48 4.33 13.542 15.803 13.542 25.63 0 5.43-1.85 9.217-4.766 10.793l-.022.012c-.238.127-.485.24-.738.338l-3.548 1.57-10.85-6.172c-5.057-5.508-8.643-14.038-8.643-21.595 0-2.165.296-4.07.835-5.678l-1.204-2.77 6.71-3.01h.002c2.35-1.224 5.38-1.03 8.684.883" fill="#5EAB11"/><path d="M44.37 105.712c7.48 4.328 13.543 15.8 13.543 25.628 0 3.887-.95 6.932-2.56 8.93l-21.85-12.43c-1.68-3.938-2.676-8.19-2.676-12.172 0-9.827 6.064-14.285 13.543-9.956" fill="#98CA3C"/><path d="M49.96 121.876l-8.24 6.617c-.37.04-.853-.34-1.186-.978-.026-.044-.048-.09-.072-.138l-2.19-4.623c-1.226-2.593 1.414-3.904 2.34-1.847l1.32 2.925 6.594-5.278c2.008-1.608 3.3 1.825 1.435 3.322" fill="#FFFFFE"/><path d="M131.58 170.628l-1.327.73-1.05.578-1.325.73c-1.23.68-2.24 2.386-2.24 3.796v5.586c0 1.33.9 1.938 2.035 1.43v8.2c0 .962.69 1.372 1.53.908l1.05-.577c.842-.465 1.532-1.634 1.532-2.597v-8.198c1.134-.745 2.034-2.34 2.034-3.672v-5.586c0-1.41-1.008-2.007-2.24-1.33zm9.55-3.54l-2.024 1.117-1.134.623c-1.05.58-1.91 2.035-1.91 3.238v4.767c0 1.133.767 1.653 1.736 1.22v6.994c0 .822.59 1.17 1.308.775l.893-.492c.718-.396 1.306-1.392 1.306-2.216v-6.994c.97-.636 1.736-1.996 1.736-3.13v-4.768c0-1.202-.86-1.712-1.91-1.134zm-1.682-5.92c-1.123.618-2.034 2.163-2.034 3.45 0 1.286.91 1.828 2.034 1.21 1.125-.62 2.037-2.166 2.037-3.452 0-1.287-.912-1.828-2.037-1.21zm-9.84 1.838c-1.387.763-2.51 2.667-2.51 4.253 0 1.585 1.123 2.25 2.51 1.487 1.386-.762 2.51-2.667 2.51-4.252 0-1.586-1.124-2.253-2.51-1.49zm-9.74 8.945c-1.16.638-2.096 2.228-2.096 3.55 0 1.325.937 1.88 2.095 1.243 1.156-.636 2.093-2.226 2.093-3.55 0-1.323-.937-1.88-2.093-1.242zm1.68 6.186l-1.132.625-.894.492-1.132.625c-1.05.58-1.91 2.035-1.91 3.237v4.766c0 1.134.766 1.653 1.735 1.22v6.995c0 .82.59 1.17 1.307.776l.894-.493c.718-.394 1.307-1.392 1.307-2.214v-6.994c.97-.637 1.736-1.998 1.736-3.134v-4.765c0-1.2-.86-1.713-1.912-1.134z" fill="#C8C8C8"/></g></svg>